HIERARCHY
ROOT hip
{
	OFFSET 0.000000 103.560692 0.219151
	CHANNELS 6 Xposition Yposition Zposition Zrotation Xrotation Yrotation
	JOINT pelvis
	{
		OFFSET 0.000000 1.955040 1.591925
		CHANNELS 3 Zrotation Xrotation Yrotation
		JOINT lThigh
		{
			OFFSET 8.341582 -7.629402 -0.646910
			CHANNELS 3 Zrotation Xrotation Yrotation
			JOINT lShin
			{
				OFFSET 2.185763 -45.093132 -0.705710
				CHANNELS 3 Zrotation Xrotation Yrotation
				JOINT lFoot
				{
					OFFSET 0.730976 -46.379768 -2.264282
					CHANNELS 3 Zrotation Xrotation Yrotation
					JOINT lToe
					{
						OFFSET 2.797621 -4.200020 10.742415
						CHANNELS 3 Zrotation Xrotation Yrotation
						JOINT lBigToe
						{
							OFFSET -2.433708 -0.269072 1.841711
							CHANNELS 3 Zrotation Xrotation Yrotation
							End Site
							{
								OFFSET -10.527346 -33.657166 -1.340707
							}
						}
					}
				}
			}
		}
		JOINT rThigh
		{
			OFFSET -8.341582 -7.629402 -0.646910
			CHANNELS 3 Zrotation Xrotation Yrotation
			JOINT rShin
			{
				OFFSET -2.185763 -45.093132 -0.705710
				CHANNELS 3 Zrotation Xrotation Yrotation
				JOINT rFoot
				{
					OFFSET -0.730976 -46.379768 -2.264282
					CHANNELS 3 Zrotation Xrotation Yrotation
					JOINT rToe
					{
						OFFSET -2.797621 -4.200019 10.742415
						CHANNELS 3 Zrotation Xrotation Yrotation
						JOINT rBigToe
						{
							OFFSET 2.433708 -0.269072 1.841711
							CHANNELS 3 Zrotation Xrotation Yrotation
							End Site
							{
								OFFSET 0.000000 24.298409 -0.425647
							}
						}
					}
				}
			}
		}
	}
	JOINT abdomen
	{
		OFFSET 0.000000 1.841293 -3.551421
		CHANNELS 3 Zrotation Xrotation Yrotation
		JOINT abdomen2
		{
			OFFSET 0.000000 5.439911 3.419600
			CHANNELS 3 Zrotation Xrotation Yrotation
			JOINT chest
			{
				OFFSET 0.000000 14.715073 -2.918270
				CHANNELS 3 Zrotation Xrotation Yrotation
				JOINT neck
				{
					OFFSET 0.000000 26.294655 -1.248052
					CHANNELS 3 Zrotation Xrotation Yrotation
					JOINT head
					{
						OFFSET 0.000000 8.807068 1.063695
						CHANNELS 3 Zrotation Xrotation Yrotation
						JOINT rEye
						{
							OFFSET -3.030866 6.632080 7.702687
							CHANNELS 3 Zrotation Xrotation Yrotation
							End Site
							{
								OFFSET 2.969555 -11.022598 8.626689
							}
						}
						JOINT lEye
						{
							OFFSET 3.030866 6.632080 7.702687
							CHANNELS 3 Zrotation Xrotation Yrotation
							End Site
							{
								OFFSET 0.000000 -15.881760 10.104412
							}
						}
						JOINT upperJaw
						{
							OFFSET 0.000000 1.922699 2.891887
							CHANNELS 3 Zrotation Xrotation Yrotation
							End Site
							{
								OFFSET 0.000000 -19.386169 10.230839
							}
						}
						JOINT lowerJaw
						{
							OFFSET 0.000000 1.857620 2.686640
							CHANNELS 3 Zrotation Xrotation Yrotation
							JOINT tongueBase
							{
								OFFSET 0.000000 -3.019135 2.746916
								CHANNELS 3 Zrotation Xrotation Yrotation
								JOINT tongue01
								{
									OFFSET 0.000000 0.664124 0.223355
									CHANNELS 3 Zrotation Xrotation Yrotation
									JOINT tongue02
									{
										OFFSET 0.000000 0.339737 0.715627
										CHANNELS 3 Zrotation Xrotation Yrotation
										JOINT tongue03
										{
											OFFSET 0.000000 0.123444 0.730634
											CHANNELS 3 Zrotation Xrotation Yrotation
											JOINT tongue04
											{
												OFFSET 0.000000 0.017212 0.737415
												CHANNELS 3 Zrotation Xrotation Yrotation
												JOINT tongue05
												{
													OFFSET 0.000000 -0.021011 0.632440
													CHANNELS 3 Zrotation Xrotation Yrotation
													JOINT tongueTip
													{
														OFFSET 0.000000 -0.014404 0.601796
														CHANNELS 3 Zrotation Xrotation Yrotation
														End Site
														{
															OFFSET -14.139406 -2.625778 0.472826
														}
													}
												}
											}
										}
									}
								}
							}
						}
					}
				}
				JOINT rCollar
				{
					OFFSET -2.109295 21.452370 3.768136
					CHANNELS 3 Zrotation Xrotation Yrotation
					JOINT rShldr
					{
						OFFSET -11.491621 -2.568573 -4.940255
						CHANNELS 3 Zrotation Xrotation Yrotation
						JOINT rForeArm
						{
							OFFSET -28.789030 -0.213806 2.098380
							CHANNELS 3 Zrotation Xrotation Yrotation
							JOINT rHand
							{
								OFFSET -22.260895 -0.869583 10.391586
								CHANNELS 3 Zrotation Xrotation Yrotation
								JOINT rThumb1
								{
									OFFSET -0.628075 0.137405 2.362409
									CHANNELS 3 Zrotation Xrotation Yrotation
									JOINT rThumb2
									{
										OFFSET 0.085205 -0.600235 3.826079
										CHANNELS 3 Zrotation Xrotation Yrotation
										JOINT rThumb3
										{
											OFFSET -1.255478 -0.879211 2.439162
											CHANNELS 3 Zrotation Xrotation Yrotation
											End Site
											{
												OFFSET -2.963715 0.538574 4.059553
											}
										}
									}
								}
								JOINT rCarpal1
								{
									OFFSET -0.855530 1.026047 1.621985
									CHANNELS 3 Zrotation Xrotation Yrotation
									JOINT rIndex1
									{
										OFFSET -3.951324 0.390884 3.873290
										CHANNELS 3 Zrotation Xrotation Yrotation
										JOINT rIndex2
										{
											OFFSET -3.071884 -1.259598 2.506104
											CHANNELS 3 Zrotation Xrotation Yrotation
											JOINT rIndex3
											{
												OFFSET -1.394112 -1.446640 1.203302
												CHANNELS 3 Zrotation Xrotation Yrotation
												End Site
												{
													OFFSET -3.392448 -1.258026 0.533405
												}
											}
										}
									}
									JOINT rMid1
									{
										OFFSET -5.422974 0.107910 2.002650
										CHANNELS 3 Zrotation Xrotation Yrotation
										JOINT rMid2
										{
											OFFSET -3.599533 -1.323776 2.090647
											CHANNELS 3 Zrotation Xrotation Yrotation
											JOINT rMid3
											{
												OFFSET -1.360191 -1.598495 1.068055
												CHANNELS 3 Zrotation Xrotation Yrotation
												End Site
												{
													OFFSET -4.087769 -0.460876 0.069540
												}
											}
										}
									}
								}
								JOINT rCarpal2
								{
									OFFSET -1.942749 0.556229 -0.337217
									CHANNELS 3 Zrotation Xrotation Yrotation
									JOINT rRing1
									{
										OFFSET -4.762787 -0.121170 2.349089
										CHANNELS 3 Zrotation Xrotation Yrotation
										JOINT rRing2
										{
											OFFSET -3.380348 -1.337097 1.356700
											CHANNELS 3 Zrotation Xrotation Yrotation
											JOINT rRing3
											{
												OFFSET -1.430290 -1.499649 0.914224
												CHANNELS 3 Zrotation Xrotation Yrotation
												End Site
												{
													OFFSET -1.783272 -2.215851 -0.391895
												}
											}
										}
									}
									JOINT rPinky1
									{
										OFFSET -5.232559 -1.313721 0.336493
										CHANNELS 3 Zrotation Xrotation Yrotation
										JOINT rPinky2
										{
											OFFSET -2.217606 -1.389603 0.800693
											CHANNELS 3 Zrotation Xrotation Yrotation
											JOINT rPinky3
											{
												OFFSET -0.886887 -1.462280 0.774199
												CHANNELS 3 Zrotation Xrotation Yrotation
												End Site
												{
													OFFSET 14.139406 -2.625778 0.472826
												}
											}
										}
									}
								}
							}
						}
					}
				}
				JOINT lCollar
				{
					OFFSET 2.109295 21.452370 3.768136
					CHANNELS 3 Zrotation Xrotation Yrotation
					JOINT lShldr
					{
						OFFSET 11.491621 -2.568573 -4.940255
						CHANNELS 3 Zrotation Xrotation Yrotation
						JOINT lForeArm
						{
							OFFSET 28.789030 -0.213806 2.098380
							CHANNELS 3 Zrotation Xrotation Yrotation
							JOINT lHand
							{
								OFFSET 22.260895 -0.869583 10.391586
								CHANNELS 3 Zrotation Xrotation Yrotation
								JOINT lThumb1
								{
									OFFSET 0.628075 0.137405 2.362409
									CHANNELS 3 Zrotation Xrotation Yrotation
									JOINT lThumb2
									{
										OFFSET -0.085205 -0.600235 3.826079
										CHANNELS 3 Zrotation Xrotation Yrotation
										JOINT lThumb3
										{
											OFFSET 1.255478 -0.879211 2.439162
											CHANNELS 3 Zrotation Xrotation Yrotation
											End Site
											{
												OFFSET 2.963715 0.538574 4.059553
											}
										}
									}
								}
								JOINT lCarpal1
								{
									OFFSET 0.855530 1.026047 1.621985
									CHANNELS 3 Zrotation Xrotation Yrotation
									JOINT lIndex1
									{
										OFFSET 3.951324 0.390884 3.873290
										CHANNELS 3 Zrotation Xrotation Yrotation
										JOINT lIndex2
										{
											OFFSET 3.071884 -1.259598 2.506104
											CHANNELS 3 Zrotation Xrotation Yrotation
											JOINT lIndex3
											{
												OFFSET 1.394112 -1.446640 1.203302
												CHANNELS 3 Zrotation Xrotation Yrotation
												End Site
												{
													OFFSET 3.392448 -1.258026 0.533405
												}
											}
										}
									}
									JOINT lMid1
									{
										OFFSET 5.422974 0.107910 2.002650
										CHANNELS 3 Zrotation Xrotation Yrotation
										JOINT lMid2
										{
											OFFSET 3.599533 -1.323776 2.090647
											CHANNELS 3 Zrotation Xrotation Yrotation
											JOINT lMid3
											{
												OFFSET 1.360191 -1.598495 1.068055
												CHANNELS 3 Zrotation Xrotation Yrotation
												End Site
												{
													OFFSET 4.087769 -0.460876 0.069540
												}
											}
										}
									}
								}
								JOINT lCarpal2
								{
									OFFSET 1.942749 0.556229 -0.337217
									CHANNELS 3 Zrotation Xrotation Yrotation
									JOINT lRing1
									{
										OFFSET 4.762787 -0.121170 2.349089
										CHANNELS 3 Zrotation Xrotation Yrotation
										JOINT lRing2
										{
											OFFSET 3.380348 -1.337097 1.356700
											CHANNELS 3 Zrotation Xrotation Yrotation
											JOINT lRing3
											{
												OFFSET 1.430290 -1.499649 0.914224
												CHANNELS 3 Zrotation Xrotation Yrotation
												End Site
												{
													OFFSET 1.783272 -2.215851 -0.391895
												}
											}
										}
									}
									JOINT lPinky1
									{
										OFFSET 5.232559 -1.313721 0.336493
										CHANNELS 3 Zrotation Xrotation Yrotation
										JOINT lPinky2
										{
											OFFSET 2.217606 -1.389603 0.800693
											CHANNELS 3 Zrotation Xrotation Yrotation
											JOINT lPinky3
											{
												OFFSET 0.886887 -1.462280 0.774199
												CHANNELS 3 Zrotation Xrotation Yrotation
												End Site
												{
													OFFSET -10.295957 -17.050110 17.461308
												}
											}
										}
									}
								}
							}
						}
					}
				}
				JOINT rPectoral
				{
					OFFSET -6.358840 6.360771 6.369920
					CHANNELS 3 Zrotation Xrotation Yrotation
					End Site
					{
						OFFSET 10.295957 -17.050110 17.461308
					}
				}
				JOINT lPectoral
				{
					OFFSET 6.358840 6.360771 6.369920
					CHANNELS 3 Zrotation Xrotation Yrotation
					End Site
					{
						OFFSET 10.295957 -17.050110 17.461308
					}
				}
			}
		}
	}
}
MOTION
Frames:	4
Frame Time:	0.0333333
0.000000 0.988563 0.000000 0.777182 3.440661 1.327478 0.000000 0.000000 0.000000 2.963369 -4.752166 -0.378481 -1.304065 2.275238 -7.198817 2.570049 -16.530369 -8.553647 4.388351 -8.224483 1.800954 0.000000 0.000000 0.000000 -2.343465 -7.545961 4.637968 2.626099 7.682510 11.455010 -6.190181 -19.691628 -8.712091 -4.723180 -7.726356 -1.704052 0.000000 0.000000 0.000000 -1.739818 -2.254973 -3.448787 0.000000 0.000000 0.000000 1.286296 6.260974 -2.639704 4.538545 -17.368904 1.669275 -3.770753 12.032094 4.175900 0.000000 0.000000 0.000000 0.000000 0.000000 0.000000 0.000000 0.000000 0.000000 0.000000 0.000000 0.000000 0.000000 0.000000 0.000000 0.000000 0.000000 0.000000 0.000000 0.000000 0.000000 0.000000 0.000000 0.000000 0.000000 0.000000 0.000000 0.000000 0.000000 0.000000 0.000000 0.000000 0.000000 17.969503 -0.082396 -3.837565 57.723297 24.763693 2.182965 0.451563 -12.991405 -8.537599 2.243217 1.780507 2.891243 -20.278101 15.997745 -11.245070 -5.406475 -14.233100 9.902917 -16.386185 20.674324 16.306753 0.000000 0.000000 0.000000 -10.344722 -8.555511 -17.047894 -2.327223 0.158877 -1.352813 -5.818598 -3.397334 -1.144541 -8.647417 -3.307343 -7.176109 -0.594737 3.049747 -3.815813 0.477367 4.595480 -2.175193 0.000000 0.000000 0.000000 -7.611748 -8.343170 -0.037786 3.867550 4.731598 -6.993989 1.274629 8.359100 -3.952725 -21.910795 -24.665661 -14.976031 1.013203 5.939926 -6.999176 24.181765 21.167713 -1.929171 -12.967263 0.065659 3.174918 -65.704636 20.729015 -2.953140 3.113644 -18.721338 19.256958 -10.737016 6.544425 -4.461303 15.319375 21.766415 8.847219 9.897357 -11.660407 7.278462 18.869974 24.455250 -9.597977 0.000000 0.000000 0.000000 12.087916 -8.719340 19.628771 2.704442 -1.592950 -0.239233 7.669960 -5.979775 1.302682 9.657770 -3.689982 7.578338 1.672497 2.702245 3.958704 -3.523009 6.268773 1.440409 0.000000 0.000000 0.000000 14.823339 -9.916796 2.952401 -14.897585 10.505441 6.875091 -11.617700 10.916432 0.445627 21.915442 -24.314636 15.509168 -1.840489 7.770340 6.102779 -27.438419 15.370988 -3.025694 0.150756 -0.007537 -0.442678 -0.115598 -0.005675 0.339429 
0.271781 0.954169 -0.437106 0.872501 3.381780 1.555118 0.000000 0.000000 0.000000 2.827886 -7.201826 -0.175313 -0.887480 6.780082 -12.140170 1.539365 -18.507902 -8.310208 4.422115 -8.197401 1.792180 0.000000 0.000000 0.000000 -2.580547 -7.811800 5.032429 2.499461 7.843377 10.911518 -5.854493 -19.843843 -8.434885 -4.684581 -7.603736 -1.721681 0.000000 0.000000 0.000000 -1.673761 -1.694794 -3.168217 0.000000 0.000000 0.000000 1.157511 5.870090 -2.394107 4.360547 -17.901426 1.066576 -3.221459 12.040278 3.288300 0.000000 0.000000 0.000000 0.000000 0.000000 0.000000 0.000000 0.000000 0.000000 0.000000 0.000000 0.000000 0.000000 0.000000 0.000000 0.000000 0.000000 0.000000 0.000000 0.000000 0.000000 0.000000 0.000000 0.000000 0.000000 0.000000 0.000000 0.000000 0.000000 0.000000 0.000000 0.000000 0.000000 18.094025 -0.125672 -3.994407 57.637596 25.272543 1.659523 1.070966 -12.519758 -8.725160 0.822067 1.050148 4.210942 -20.278101 15.997745 -11.245070 -5.406475 -14.233100 9.902917 -16.386185 20.674324 16.306753 0.000000 0.000000 0.000000 -10.344722 -8.555511 -17.047894 -2.785296 -0.259893 -1.378304 -6.421003 -3.992592 -1.221776 -8.647417 -3.307343 -7.176109 -0.594737 3.049747 -3.815813 0.477367 4.595480 -2.175193 0.000000 0.000000 0.000000 -7.291833 -8.217524 0.019807 4.982981 5.181118 -6.972200 1.274629 8.359100 -3.952725 -21.636896 -24.650923 -14.845150 5.114410 7.474635 -6.747413 25.072283 21.668987 -1.876443 -13.626381 0.086755 3.073084 -64.920952 20.980080 -4.269723 2.769083 -16.943457 20.968805 -10.384347 6.199301 -3.858145 15.319375 21.766415 8.847219 9.897357 -11.660407 7.278462 18.869974 24.455250 -9.597977 0.000000 0.000000 0.000000 12.023935 -8.742624 19.438789 2.704442 -1.592950 -0.239233 7.669960 -5.979775 1.302682 9.657770 -3.689982 7.578338 1.672497 2.702245 3.958704 -3.523009 6.268773 1.440409 0.000000 0.000000 0.000000 13.981107 -9.631918 2.774361 -14.897585 10.505441 6.875091 -11.617700 10.916432 0.445627 21.823906 -24.311539 15.465026 -5.753407 9.189067 5.969655 -28.609436 16.039532 -3.022982 0.156278 -0.007835 -0.458898 -0.113813 -0.005582 0.334185 
0.628146 0.788814 -0.750253 0.572821 2.800809 1.116637 0.000000 0.000000 0.000000 3.264754 -7.246249 -0.223898 -0.991361 7.948650 -18.995329 2.480781 -19.488102 -8.377715 4.454576 -8.148764 1.780758 0.000000 0.000000 0.000000 -2.471046 -7.874670 6.372857 2.770929 8.539613 11.084329 -6.001237 -20.242828 -9.287266 -4.833417 -7.255732 -1.704654 0.000000 0.000000 0.000000 -0.421504 -0.614864 -2.601379 0.000000 0.000000 0.000000 -0.160729 5.455590 -1.692749 5.248028 -18.188288 0.432076 -3.565986 12.036179 2.932544 0.000000 0.000000 0.000000 0.000000 0.000000 0.000000 0.000000 0.000000 0.000000 0.000000 0.000000 0.000000 0.000000 0.000000 0.000000 0.000000 0.000000 0.000000 0.000000 0.000000 0.000000 0.000000 0.000000 0.000000 0.000000 0.000000 0.000000 0.000000 0.000000 0.000000 0.000000 0.000000 0.000000 18.307522 -0.172915 -4.166469 57.111378 25.869734 1.103868 1.192086 -12.203706 -9.413965 0.147293 0.704404 4.989302 -20.278101 15.997745 -11.245070 -5.406475 -14.233100 9.902917 -16.386185 20.674324 16.306753 0.000000 0.000000 0.000000 -10.344722 -8.555511 -17.047894 -3.294912 -0.729380 -1.407399 -7.094907 -4.655937 -1.315228 -8.647417 -3.307343 -7.176109 -0.594737 3.049747 -3.815813 0.477367 4.595480 -2.175193 0.000000 0.000000 0.000000 -6.934788 -8.076956 0.083255 6.229026 5.682482 -6.958611 1.274629 8.359100 -3.952725 -21.331217 -24.635010 -14.699428 9.707023 9.193089 -6.599147 26.070009 22.228691 -1.828222 -13.651824 0.121396 2.924396 -63.253193 21.535782 -5.937469 2.441115 -14.287983 22.352339 -10.723478 6.544857 -4.493832 15.319375 21.766415 8.847219 9.897357 -11.660407 7.278462 18.869974 24.455250 -9.597977 0.000000 0.000000 0.000000 11.952296 -8.768350 19.226196 3.254853 -2.132508 -0.200889 7.669960 -5.979775 1.302682 9.657770 -3.689982 7.578338 1.672497 2.702245 3.958704 -3.523009 6.268773 1.440409 0.000000 0.000000 0.000000 13.042821 -9.312489 2.580192 -14.897585 10.505441 6.875091 -11.617700 10.916432 0.445627 21.720993 -24.308073 15.415841 -10.137019 10.779110 5.937108 -29.921841 16.785341 -3.003685 0.162588 -0.008178 -0.477429 -0.109030 -0.005334 0.320139 
1.058880 0.573654 -1.067212 0.357333 2.402647 0.183385 0.000000 0.000000 0.000000 3.681063 -7.735744 -0.974595 -0.772487 9.809810 -27.182602 1.238848 -22.074142 -8.086763 4.492356 -8.132687 1.755931 0.000000 0.000000 0.000000 -2.487844 -8.494547 6.902306 2.832708 10.091205 9.623886 -4.998838 -21.401085 -7.374022 -4.979274 -6.777616 -1.705086 0.000000 0.000000 0.000000 0.544416 -0.142718 -2.111819 0.000000 0.000000 0.000000 -0.777742 5.518267 -1.182724 5.822127 -18.633024 0.274126 -3.980596 12.167142 3.061983 0.000000 0.000000 0.000000 0.000000 0.000000 0.000000 0.000000 0.000000 0.000000 0.000000 0.000000 0.000000 0.000000 0.000000 0.000000 0.000000 0.000000 0.000000 0.000000 0.000000 0.000000 0.000000 0.000000 0.000000 0.000000 0.000000 0.000000 0.000000 0.000000 0.000000 0.000000 0.000000 0.000000 18.112789 -0.215286 -4.327915 56.239304 26.840420 0.526648 1.538118 -11.344589 -9.870028 1.201513 1.336810 5.482334 -20.278101 15.997745 -11.245070 -5.406475 -14.233100 9.902917 -16.386185 20.674324 16.306753 0.000000 0.000000 0.000000 -10.344722 -8.555511 -17.047894 -3.840293 -1.231105 -1.443129 -7.817677 -5.363970 -1.423915 -8.647417 -3.307343 -7.176109 -0.594737 3.049747 -3.815813 0.477367 4.595480 -2.175193 0.000000 0.000000 0.000000 -6.553276 -7.926468 0.150458 7.563041 6.218291 -6.956449 1.274629 8.359100 -3.952725 -21.004700 -24.617235 -14.543196 14.645509 11.024829 -6.597749 27.141567 22.827763 -1.788291 -13.977015 0.151550 2.792583 -61.437382 22.708984 -7.384266 2.490168 -13.389466 23.269560 -10.581268 6.288051 -3.759072 15.319375 21.766415 8.847219 9.897357 -11.660407 7.278462 18.869974 24.455250 -9.597977 0.000000 0.000000 0.000000 11.875340 -8.795777 18.999117 3.844023 -2.708985 -0.154105 7.669960 -5.979775 1.302682 9.657770 -3.689982 7.578338 1.672497 2.702245 3.958704 -3.523009 6.268773 1.440409 0.000000 0.000000 0.000000 12.041059 -8.969501 2.377324 -14.897585 10.505441 6.875091 -11.617700 10.916432 0.445627 21.611130 -24.304464 15.362976 -14.851592 12.476546 6.040172 -31.331404 17.581430 -2.963017 0.167234 -0.008432 -0.491073 -0.105522 -0.005153 0.309837 
